<svg width="41" height="40" viewBox="0 0 41 40" fill="none" xmlns="http://www.w3.org/2000/svg">
<g clip-path="url(#clip0_37_1241)">
<path d="M31.3865 9.11352C31.0811 8.80805 30.5865 8.80805 30.2818 9.11352C29.9764 9.41898 29.9764 9.91351 30.2818 10.2182C30.5865 10.5236 31.0811 10.5236 31.3865 10.2182C31.692 9.91351 31.692 9.41898 31.3865 9.11352Z" fill="#CC2D4A"/>
<path d="M31.3865 9.11352C31.0811 8.80805 30.5865 8.80805 30.2818 9.11352C29.9764 9.41898 29.9764 9.91351 30.2818 10.2182C30.5865 10.5236 31.0811 10.5236 31.3865 10.2182C31.692 9.91351 31.692 9.41898 31.3865 9.11352Z" fill="#2196F3"/>
<path d="M10.7186 29.7818C10.4139 29.4764 9.91855 29.4764 9.61387 29.7818C9.3084 30.0865 9.3084 30.5818 9.61387 30.8865C9.91855 31.1919 10.4139 31.1919 10.7186 30.8865C11.024 30.5818 11.024 30.0865 10.7186 29.7818Z" fill="#CC2D4A"/>
<path d="M10.7186 29.7818C10.4139 29.4764 9.91855 29.4764 9.61387 29.7818C9.3084 30.0865 9.3084 30.5818 9.61387 30.8865C9.91855 31.1919 10.4139 31.1919 10.7186 30.8865C11.024 30.5818 11.024 30.0865 10.7186 29.7818Z" fill="#2196F3"/>
<path d="M39.3536 12.1942L28.3055 1.14624C26.779 -0.381253 24.3084 -0.381488 22.781 1.14601L1.64453 22.2824C0.117813 23.8092 0.116563 26.2797 1.64453 27.8067L12.6926 38.8546C12.6926 38.8546 12.6926 38.8546 12.6928 38.8548C14.2191 40.3821 16.6897 40.3823 18.2172 38.8548L39.3535 17.7185C40.8802 16.1917 40.8815 13.7211 39.3536 12.1942ZM38.2487 16.6136L17.1123 37.7501C16.1962 38.6663 14.7143 38.6673 13.7979 37.7503C13.7979 37.7502 13.7978 37.7502 13.7977 37.7501L2.74929 26.7017C1.83289 25.786 1.83265 24.3039 2.74945 23.3873L23.8857 2.25085C24.8021 1.33445 26.2839 1.33374 27.2003 2.25085L38.2488 13.2993C39.1653 14.215 39.1655 15.6971 38.2487 16.6136Z" fill="#CC2D4A"/>
<path d="M39.3536 12.1942L28.3055 1.14624C26.779 -0.381253 24.3084 -0.381488 22.781 1.14601L1.64453 22.2824C0.117813 23.8092 0.116563 26.2797 1.64453 27.8067L12.6926 38.8546C12.6926 38.8546 12.6926 38.8546 12.6928 38.8548C14.2191 40.3821 16.6897 40.3823 18.2172 38.8548L39.3535 17.7185C40.8802 16.1917 40.8815 13.7211 39.3536 12.1942ZM38.2487 16.6136L17.1123 37.7501C16.1962 38.6663 14.7143 38.6673 13.7979 37.7503C13.7979 37.7502 13.7978 37.7502 13.7977 37.7501L2.74929 26.7017C1.83289 25.786 1.83265 24.3039 2.74945 23.3873L23.8857 2.25085C24.8021 1.33445 26.2839 1.33374 27.2003 2.25085L38.2488 13.2993C39.1653 14.215 39.1655 15.6971 38.2487 16.6136Z" fill="#2196F3"/>
<path d="M35.2538 12.9803C34.0352 11.762 32.0527 11.7619 30.8344 12.9802C29.6129 14.2007 29.6121 16.1782 30.8342 17.3992C32.0558 18.621 34.0322 18.621 35.2538 17.3992V17.3992C36.4747 16.1784 36.4748 14.2014 35.2538 12.9803ZM34.149 16.2944C33.5382 16.9053 32.5504 16.9058 31.9388 16.2942C31.3283 15.6842 31.3279 14.6959 31.939 14.0853C32.5484 13.4759 33.5397 13.476 34.149 14.0853C34.7592 14.6954 34.7592 15.6842 34.149 16.2944Z" fill="#CC2D4A"/>
<path d="M35.2538 12.9803C34.0352 11.762 32.0527 11.7619 30.8344 12.9802C29.6129 14.2007 29.6121 16.1782 30.8342 17.3992C32.0558 18.621 34.0322 18.621 35.2538 17.3992V17.3992C36.4747 16.1784 36.4748 14.2014 35.2538 12.9803ZM34.149 16.2944C33.5382 16.9053 32.5504 16.9058 31.9388 16.2942C31.3283 15.6842 31.3279 14.6959 31.939 14.0853C32.5484 13.4759 33.5397 13.476 34.149 14.0853C34.7592 14.6954 34.7592 15.6842 34.149 16.2944Z" fill="#2196F3"/>
<path d="M29.495 18.7389C28.2765 17.5205 26.294 17.5204 25.0757 18.7387C23.854 19.9594 23.8534 21.9366 25.0757 23.1588C26.294 24.3762 28.2764 24.3762 29.4948 23.1588C29.495 23.1587 29.4951 23.1585 29.4953 23.1583C30.7131 21.9393 30.713 19.9569 29.495 18.7389ZM28.3902 22.0537C27.7807 22.6627 26.7893 22.6624 26.1803 22.0537C25.5696 21.4431 25.569 20.4545 26.1803 19.8438C26.7897 19.2344 27.7809 19.2345 28.3902 19.8438C28.9991 20.4527 28.9991 21.4441 28.3902 22.0537Z" fill="#CC2D4A"/>
<path d="M29.495 18.7389C28.2765 17.5205 26.294 17.5204 25.0757 18.7387C23.854 19.9594 23.8534 21.9366 25.0757 23.1588C26.294 24.3762 28.2764 24.3762 29.4948 23.1588C29.495 23.1587 29.4951 23.1585 29.4953 23.1583C30.7131 21.9393 30.713 19.9569 29.495 18.7389ZM28.3902 22.0537C27.7807 22.6627 26.7893 22.6624 26.1803 22.0537C25.5696 21.4431 25.569 20.4545 26.1803 19.8438C26.7897 19.2344 27.7809 19.2345 28.3902 19.8438C28.9991 20.4527 28.9991 21.4441 28.3902 22.0537Z" fill="#2196F3"/>
<path d="M23.6586 24.5756C22.4375 23.3546 20.4603 23.3534 19.239 24.5756C18.0206 25.7942 18.0206 27.7768 19.239 28.9953C20.4572 30.2134 22.4396 30.2132 23.6584 28.9955C23.6585 28.9954 23.6587 28.9952 23.6589 28.995C24.8761 27.7766 24.8761 25.7942 23.6586 24.5756ZM22.5536 27.8907C21.9439 28.4993 20.9528 28.4994 20.3439 27.8904C19.7346 27.2811 19.7346 26.2897 20.3442 25.6801C20.9533 25.0705 21.9419 25.0685 22.5536 25.68C23.1625 26.2897 23.1625 27.2813 22.5536 27.8907Z" fill="#CC2D4A"/>
<path d="M23.6586 24.5756C22.4375 23.3546 20.4603 23.3534 19.239 24.5756C18.0206 25.7942 18.0206 27.7768 19.239 28.9953C20.4572 30.2134 22.4396 30.2132 23.6584 28.9955C23.6585 28.9954 23.6587 28.9952 23.6589 28.995C24.8761 27.7766 24.8761 25.7942 23.6586 24.5756ZM22.5536 27.8907C21.9439 28.4993 20.9528 28.4994 20.3439 27.8904C19.7346 27.2811 19.7346 26.2897 20.3442 25.6801C20.9533 25.0705 21.9419 25.0685 22.5536 25.68C23.1625 26.2897 23.1625 27.2813 22.5536 27.8907Z" fill="#2196F3"/>
<path d="M17.8994 30.3344C16.6787 29.1127 14.7013 29.1121 13.4802 30.3341C12.2618 31.5527 12.2618 33.5353 13.4802 34.7538C14.6985 35.972 16.6807 35.9721 17.8991 34.7538C17.8991 34.7538 17.8991 34.7538 17.8991 34.7537C19.1176 33.5352 19.1176 31.5526 17.8994 30.3344ZM16.7943 33.6489C16.1852 34.258 15.1942 34.258 14.5852 33.6489C13.9759 33.0396 13.9759 32.0482 14.5854 31.4387C15.1955 30.828 16.1837 30.8278 16.7943 31.4388C17.4036 32.0483 17.4036 33.0398 16.7943 33.6489Z" fill="#CC2D4A"/>
<path d="M17.8994 30.3344C16.6787 29.1127 14.7013 29.1121 13.4802 30.3341C12.2618 31.5527 12.2618 33.5353 13.4802 34.7538C14.6985 35.972 16.6807 35.9721 17.8991 34.7538C17.8991 34.7538 17.8991 34.7538 17.8991 34.7537C19.1176 33.5352 19.1176 31.5526 17.8994 30.3344ZM16.7943 33.6489C16.1852 34.258 15.1942 34.258 14.5852 33.6489C13.9759 33.0396 13.9759 32.0482 14.5854 31.4387C15.1955 30.828 16.1837 30.8278 16.7943 31.4388C17.4036 32.0483 17.4036 33.0398 16.7943 33.6489Z" fill="#2196F3"/>
<path d="M27.5193 5.24614C26.3009 4.02794 24.3187 4.02771 23.1004 5.24622C21.8819 6.46473 21.8819 8.44731 23.1001 9.66559C24.3212 10.8875 26.2985 10.8875 27.5195 9.66559C28.7377 8.44707 28.7376 6.46458 27.5193 5.24614ZM26.4144 8.56106C26.4143 8.56114 26.4142 8.56121 26.4141 8.56129C25.804 9.17192 24.8158 9.17215 24.2052 8.56114C23.5959 7.95176 23.5959 6.96028 24.2052 6.35106C24.8144 5.74192 25.8052 5.74192 26.4144 6.35106C27.0237 6.96036 27.0237 7.95176 26.4144 8.56106Z" fill="#CC2D4A"/>
<path d="M27.5193 5.24614C26.3009 4.02794 24.3187 4.02771 23.1004 5.24622C21.8819 6.46473 21.8819 8.44731 23.1001 9.66559C24.3212 10.8875 26.2985 10.8875 27.5195 9.66559C28.7377 8.44707 28.7376 6.46458 27.5193 5.24614ZM26.4144 8.56106C26.4143 8.56114 26.4142 8.56121 26.4141 8.56129C25.804 9.17192 24.8158 9.17215 24.2052 8.56114C23.5959 7.95176 23.5959 6.96028 24.2052 6.35106C24.8144 5.74192 25.8052 5.74192 26.4144 6.35106C27.0237 6.96036 27.0237 7.95176 26.4144 8.56106Z" fill="#2196F3"/>
<path d="M21.7605 11.0047C20.5424 9.78675 18.5599 9.78659 17.3407 11.005C16.1234 12.2234 16.1234 14.2058 17.3409 15.4244C18.5624 16.6458 20.5395 16.6463 21.7607 15.4242C22.9789 14.2056 22.9788 12.2231 21.7605 11.0047ZM20.6556 14.3195C20.6556 14.3196 20.6555 14.3197 20.6554 14.3198C20.0463 14.9294 19.0577 14.9314 18.446 14.3199C17.837 13.7104 17.837 12.7188 18.4454 12.1098C19.0546 11.5012 20.0462 11.4999 20.6556 12.1096C21.2649 12.7188 21.2649 13.7103 20.6556 14.3195Z" fill="#CC2D4A"/>
<path d="M21.7605 11.0047C20.5424 9.78675 18.5599 9.78659 17.3407 11.005C16.1234 12.2234 16.1234 14.2058 17.3409 15.4244C18.5624 16.6458 20.5395 16.6463 21.7607 15.4242C22.9789 14.2056 22.9788 12.2231 21.7605 11.0047ZM20.6556 14.3195C20.6556 14.3196 20.6555 14.3197 20.6554 14.3198C20.0463 14.9294 19.0577 14.9314 18.446 14.3199C17.837 13.7104 17.837 12.7188 18.4454 12.1098C19.0546 11.5012 20.0462 11.4999 20.6556 12.1096C21.2649 12.7188 21.2649 13.7103 20.6556 14.3195Z" fill="#2196F3"/>
<path d="M15.9237 16.841C14.7053 15.6237 12.7229 15.6236 11.5041 16.8416C10.2863 18.0606 10.2864 20.043 11.5044 21.261C12.7227 22.4792 14.7051 22.4796 15.9237 21.2612C17.1454 20.0406 17.146 18.0633 15.9237 16.841ZM14.8194 20.1559C14.8194 20.156 14.8193 20.156 14.8192 20.1561C14.2099 20.7654 13.2186 20.7654 12.6093 20.1561C12.0001 19.5472 12.0003 18.5556 12.609 17.9463C13.218 17.3378 14.2098 17.3371 14.8192 17.9461C15.4296 18.5564 15.4308 19.5451 14.8194 20.1559Z" fill="#CC2D4A"/>
<path d="M15.9237 16.841C14.7053 15.6237 12.7229 15.6236 11.5041 16.8416C10.2863 18.0606 10.2864 20.043 11.5044 21.261C12.7227 22.4792 14.7051 22.4796 15.9237 21.2612C17.1454 20.0406 17.146 18.0633 15.9237 16.841ZM14.8194 20.1559C14.8194 20.156 14.8193 20.156 14.8192 20.1561C14.2099 20.7654 13.2186 20.7654 12.6093 20.1561C12.0001 19.5472 12.0003 18.5556 12.609 17.9463C13.218 17.3378 14.2098 17.3371 14.8192 17.9461C15.4296 18.5564 15.4308 19.5451 14.8194 20.1559Z" fill="#2196F3"/>
<path d="M10.1664 22.6008C8.94472 21.3789 6.96847 21.3789 5.74676 22.6007C4.5259 23.8215 4.52574 25.7985 5.74676 27.0195C6.96511 28.2377 8.94753 28.2382 10.1661 27.0198C11.3876 25.7994 11.3885 23.8217 10.1664 22.6008ZM9.06175 25.9145C9.06167 25.9145 9.06159 25.9146 9.06151 25.9147C8.45222 26.524 7.46081 26.524 6.85152 25.9147C6.24136 25.3046 6.24121 24.3158 6.85152 23.7055C7.46238 23.0946 8.45019 23.0942 9.06175 23.7058C9.67237 24.3159 9.67237 25.3042 9.06175 25.9145Z" fill="#CC2D4A"/>
<path d="M10.1664 22.6008C8.94472 21.3789 6.96847 21.3789 5.74676 22.6007C4.5259 23.8215 4.52574 25.7985 5.74676 27.0195C6.96511 28.2377 8.94753 28.2382 10.1661 27.0198C11.3876 25.7994 11.3885 23.8217 10.1664 22.6008ZM9.06175 25.9145C9.06167 25.9145 9.06159 25.9146 9.06151 25.9147C8.45222 26.524 7.46081 26.524 6.85152 25.9147C6.24136 25.3046 6.24121 24.3158 6.85152 23.7055C7.46238 23.0946 8.45019 23.0942 9.06175 23.7058C9.67237 24.3159 9.67237 25.3042 9.06175 25.9145Z" fill="#2196F3"/>
<path d="M29.1763 11.3234C28.8713 11.0186 28.3765 11.0184 28.0715 11.3234L11.8226 27.5716C11.5175 27.8767 11.5174 28.3714 11.8226 28.6765C12.1277 28.9816 12.6224 28.9816 12.9274 28.6765L29.1763 12.4284C29.4814 12.1233 29.4815 11.6286 29.1763 11.3234Z" fill="#CC2D4A"/>
<path d="M29.1763 11.3234C28.8713 11.0186 28.3765 11.0184 28.0715 11.3234L11.8226 27.5716C11.5175 27.8767 11.5174 28.3714 11.8226 28.6765C12.1277 28.9816 12.6224 28.9816 12.9274 28.6765L29.1763 12.4284C29.4814 12.1233 29.4815 11.6286 29.1763 11.3234Z" fill="#2196F3"/>
</g>
<defs>
<clipPath id="clip0_37_1241">
<rect width="40" height="40" fill="white" transform="translate(0.5)"/>
</clipPath>
</defs>
</svg>
