<svg width="209" height="208" viewBox="0 0 209 208" fill="none" xmlns="http://www.w3.org/2000/svg">
<path d="M198.138 104C198.138 95.0434 210.373 84.5044 208.16 76.2046C205.856 67.6212 189.926 64.6506 185.573 57.127C181.221 49.6034 186.486 34.2727 180.278 28.0777C174.071 21.8827 158.829 27.2268 151.171 22.8082C143.512 18.3896 140.7 2.56619 132.07 0.267321C123.753 -1.94198 113.238 10.2689 104.218 10.2689C95.1989 10.2689 84.6837 -1.94198 76.3672 0.267321C67.7665 2.56619 64.7899 18.4642 57.2512 22.8082C49.7125 27.1521 34.351 21.8976 28.1435 28.0926C21.9361 34.2876 27.2909 49.4989 22.8634 57.1419C18.436 64.7849 2.5808 67.5913 0.277309 76.2046C-1.98131 84.5044 10.299 95.0434 10.299 104C10.299 112.957 -1.93643 123.496 0.277309 131.795C2.5808 140.379 18.5108 143.349 22.8634 150.873C27.2161 158.397 21.951 173.727 28.1585 179.922C34.3659 186.117 49.6078 180.773 57.2662 185.192C64.9245 189.61 67.7366 205.434 76.3672 207.733C84.6837 209.942 95.1989 197.731 104.218 197.731C113.238 197.731 123.753 209.942 132.07 207.733C140.67 205.434 143.647 189.536 151.186 185.192C158.724 180.848 174.086 186.102 180.293 179.907C186.501 173.712 181.146 158.501 185.573 150.858C190.001 143.215 205.856 140.409 208.16 131.795C210.418 123.496 198.138 112.957 198.138 104Z" fill="#23D160"/>
<path fill-rule="evenodd" clip-rule="evenodd" d="M142.184 76.444C143.309 77.5692 143.941 79.095 143.941 80.686C143.941 82.277 143.309 83.8029 142.184 84.928L97.2121 129.9C96.6178 130.494 95.9122 130.966 95.1356 131.288C94.359 131.609 93.5267 131.775 92.6861 131.775C91.8455 131.775 91.0132 131.609 90.2366 131.288C89.46 130.966 88.7544 130.494 88.1601 129.9L65.8161 107.56C65.243 107.007 64.786 106.344 64.4715 105.612C64.157 104.88 63.9915 104.093 63.9846 103.296C63.9777 102.5 64.1295 101.71 64.4312 100.972C64.7329 100.235 65.1784 99.565 65.7417 99.0016C66.3051 98.4383 66.975 97.9928 67.7124 97.6911C68.4498 97.3894 69.2398 97.2376 70.0365 97.2445C70.8332 97.2514 71.6205 97.417 72.3525 97.7314C73.0846 98.0459 73.7466 98.503 74.3001 99.076L92.6841 117.46L133.696 76.444C134.253 75.8865 134.915 75.4442 135.643 75.1424C136.371 74.8406 137.152 74.6853 137.94 74.6853C138.728 74.6853 139.509 74.8406 140.237 75.1424C140.965 75.4442 141.627 75.8865 142.184 76.444Z" fill="#FAFAFA"/>
</svg>
