<svg width="24" height="25" viewBox="0 0 24 25" fill="none" xmlns="http://www.w3.org/2000/svg">
<path d="M6.75 3.35366C9.09721 3.35366 11 5.25645 11 7.60366V11.8537H6.75C4.40279 11.8537 2.5 9.95087 2.5 7.60366C2.5 5.25645 4.40279 3.35366 6.75 3.35366ZM9 9.85366V7.60366C9 6.36102 7.99264 5.35366 6.75 5.35366C5.50736 5.35366 4.5 6.36102 4.5 7.60366C4.5 8.8463 5.50736 9.85366 6.75 9.85366H9ZM6.75 13.8537H11V18.1037C11 20.4509 9.09721 22.3537 6.75 22.3537C4.40279 22.3537 2.5 20.4509 2.5 18.1037C2.5 15.7565 4.40279 13.8537 6.75 13.8537ZM6.75 15.8537C5.50736 15.8537 4.5 16.8611 4.5 18.1037C4.5 19.3463 5.50736 20.3537 6.75 20.3537C7.99264 20.3537 9 19.3463 9 18.1037V15.8537H6.75ZM17.25 3.35366C19.5972 3.35366 21.5 5.25645 21.5 7.60366C21.5 9.95087 19.5972 11.8537 17.25 11.8537H13V7.60366C13 5.25645 14.9028 3.35366 17.25 3.35366ZM17.25 9.85366C18.4926 9.85366 19.5 8.8463 19.5 7.60366C19.5 6.36102 18.4926 5.35366 17.25 5.35366C16.0074 5.35366 15 6.36102 15 7.60366V9.85366H17.25ZM13 13.8537H17.25C19.5972 13.8537 21.5 15.7565 21.5 18.1037C21.5 20.4509 19.5972 22.3537 17.25 22.3537C14.9028 22.3537 13 20.4509 13 18.1037V13.8537ZM15 15.8537V18.1037C15 19.3463 16.0074 20.3537 17.25 20.3537C18.4926 20.3537 19.5 19.3463 19.5 18.1037C19.5 16.8611 18.4926 15.8537 17.25 15.8537H15Z" fill="#1B2432"/>
</svg>
