<svg width="24" height="25" viewBox="0 0 24 25" fill="none" xmlns="http://www.w3.org/2000/svg">
<path d="M12 1.85364L21.5 7.35364V18.3536L12 23.8536L2.5 18.3536V7.35364L12 1.85364ZM12 4.16464L4.5 8.50675V17.2005L12 21.5426L19.5 17.2005V8.50675L12 4.16464ZM12 16.8536C9.79086 16.8536 8 15.0627 8 12.8536C8 10.6445 9.79086 8.85364 12 8.85364C14.2091 8.85364 16 10.6445 16 12.8536C16 15.0627 14.2091 16.8536 12 16.8536ZM12 14.8536C13.1046 14.8536 14 13.9582 14 12.8536C14 11.749 13.1046 10.8536 12 10.8536C10.8954 10.8536 10 11.749 10 12.8536C10 13.9582 10.8954 14.8536 12 14.8536Z" fill="black"/>
</svg>
