<svg width="24" height="25" viewBox="0 0 24 25" fill="none" xmlns="http://www.w3.org/2000/svg">
<path d="M20 2.85367C20.5523 2.85367 21 3.30139 21 3.85367V21.8537C21 22.406 20.5523 22.8537 20 22.8537H6C5.44772 22.8537 5 22.406 5 21.8537V19.8537H3V17.8537H5V15.8537H3V13.8537H5V11.8537H3V9.85367H5V7.85367H3V5.85367H5V3.85367C5 3.30139 5.44772 2.85367 6 2.85367H20ZM19 4.85367H7V20.8537H19V4.85367ZM14 8.85367V11.8537H17V13.8537H13.999L14 16.8537H12L11.999 13.8537H9V11.8537H12V8.85367H14Z" fill="#1B2432"/>
</svg>
