<svg width="101" height="100" viewBox="0 0 101 100" fill="none" xmlns="http://www.w3.org/2000/svg">
<rect x="0.5" width="100" height="100" rx="50" fill="#CC2D4A" fill-opacity="0.2"/>
<path d="M49.6669 35.0067C48.728 35.02 47.8002 35.0572 46.8835 35.1183C39.9102 35.5817 34.3569 41.215 33.9002 48.285C33.8119 49.6836 33.8119 51.0864 33.9002 52.485C34.0669 55.06 35.2052 57.445 36.5469 59.4583C37.3252 60.8667 36.8119 62.6267 36.0002 64.1633C35.4169 65.2717 35.1235 65.825 35.3585 66.225C35.5919 66.625 36.1169 66.6383 37.1652 66.6633C39.2402 66.7133 40.6385 66.1267 41.7485 65.3083C42.3769 64.8433 42.6919 64.6117 42.9085 64.585C43.1252 64.5583 43.5535 64.735 44.4069 65.085C45.1735 65.4017 46.0652 65.5967 46.8819 65.6517C49.2569 65.8083 51.7385 65.81 54.1185 65.6517C61.0902 65.1883 66.6435 59.555 67.1002 52.485C67.1519 51.6683 67.1735 50.8317 67.1652 50.0017" stroke="#CC2D4A" stroke-width="2" stroke-linecap="round" stroke-linejoin="round"/>
<path d="M44.667 55H56.3337M44.667 46.6666H48.8337M60.5003 33.3333C58.3887 33.3333 57.0203 34.68 55.4003 35.17C54.7437 35.37 54.4137 35.47 54.2803 35.61C54.147 35.75 54.1087 35.9566 54.0303 36.3666C53.197 40.7633 55.0203 44.83 59.3703 46.4116C59.837 46.5816 60.0703 46.6666 60.502 46.6666C60.9303 46.6666 61.1653 46.5816 61.632 46.4116C65.982 44.8283 67.8053 40.7633 66.9703 36.3666C66.892 35.955 66.8537 35.75 66.7203 35.61C66.587 35.47 66.257 35.37 65.5987 35.17C63.9803 34.68 62.6103 33.3333 60.5003 33.3333Z" stroke="#CC2D4A" stroke-width="2" stroke-linecap="round" stroke-linejoin="round"/>
</svg>
