<svg width="41" height="40" viewBox="0 0 41 40" fill="none" xmlns="http://www.w3.org/2000/svg">
<path d="M26.748 35.0781C26.3168 35.0781 25.9668 35.4281 25.9668 35.8594C25.9668 36.2906 26.3168 36.6406 26.748 36.6406C27.1793 36.6406 27.5293 36.2906 27.5293 35.8594C27.5293 35.4281 27.1793 35.0781 26.748 35.0781Z" fill="#CC2D4A"/>
<path d="M14.248 3.35938C13.8168 3.35938 13.4668 3.70937 13.4668 4.14062C13.4668 4.57187 13.8168 4.92188 14.248 4.92188C14.6793 4.92188 15.0293 4.57187 15.0293 4.14062C15.0293 3.70937 14.6793 3.35938 14.248 3.35938Z" fill="#CC2D4A"/>
<path d="M35.3857 39.0923C34.9058 36.1809 34.2875 33.6561 33.2444 30.849C31.4043 25.8973 28.9415 22.2559 25.9142 20.0045C31.3684 15.9598 34.3074 7.60508 35.3179 0.896172C35.3887 0.425547 35.0167 0.00664063 34.5459 0.00632813C33.4558 0.00546875 32.283 0.00398437 31.3857 0.0015625C31.385 0.0015625 31.3843 0.0015625 31.3837 0.0015625C31.0017 0.0015625 30.6757 0.269922 30.613 0.646797C30.5373 1.10188 30.3591 2.08469 30.0472 3.35938H17.1265C16.6951 3.35938 16.3453 3.70922 16.3453 4.14062C16.3453 4.57203 16.6951 4.91406 17.1265 4.91406H29.6329C29.3344 5.9582 28.9608 7.11406 28.5013 8.28125H12.4565C11.095 4.855 10.4793 1.60172 10.3179 0.650547C10.2541 0.274922 9.92865 0 9.54764 0H6.38592C5.90943 0 5.5442 0.423359 5.61279 0.893906C6.55397 7.35836 9.66537 15.9337 15.0883 19.9912C9.59998 24.057 6.74225 32.3212 5.67959 39.1094C5.61295 39.5809 5.97975 40 6.45311 40H9.61326C9.99514 40 10.321 39.724 10.3838 39.3473C10.4597 38.8927 10.638 37.912 10.9493 36.6406H23.8703C24.3017 36.6406 24.6515 36.2908 24.6515 35.8594C24.6515 35.428 24.3017 35.0781 23.8703 35.0781H11.3636C11.6622 34.0337 12.0358 32.8854 12.4951 31.7188H28.5712C29.5343 34.1238 30.2215 36.5613 30.6511 39.1807C30.6625 39.2506 30.6722 39.3102 30.6805 39.3584C30.744 39.7345 31.0697 39.9859 31.4507 39.9859C31.452 39.9859 31.4533 39.9859 31.4546 39.9859C32.4233 39.9812 33.659 39.9867 34.6162 39.9852C35.0962 39.9844 35.4644 39.5691 35.3857 39.0923ZM32.0375 1.55773C32.5361 1.55867 33.0822 1.55945 33.6323 1.56008C32.5751 7.69 29.6959 15.5977 24.5113 19.0842C23.9638 18.771 23.3991 18.4999 22.8204 18.2722C28.131 15.3258 30.9133 7.50633 32.0375 1.55773ZM20.4958 17.575C18.8895 17.0867 17.4047 16.0655 16.0659 14.5312H24.9128C23.5797 16.0636 22.0991 17.0847 20.4958 17.575ZM27.8355 9.83594C27.3015 10.9937 26.7212 12.0478 26.1026 12.9688H14.8717C14.2497 12.0476 13.6659 10.9935 13.1279 9.83594H27.8355ZM8.95865 38.4375H7.36506C8.42217 32.3096 11.3014 24.3998 16.4884 20.9138C17.0351 21.2276 17.5993 21.4992 18.1777 21.7273C12.8651 24.6737 10.0683 32.5256 8.95865 38.4375ZM20.5016 22.4252C22.1112 22.9139 23.6006 23.9348 24.9448 25.4688H16.0843C17.4174 23.9365 18.8981 22.9155 20.5016 22.4252ZM13.1611 30.1562C13.6955 28.9981 14.2759 27.9519 14.8944 27.0312H26.1442C26.768 27.9511 27.3546 28.9974 27.8958 30.1562H13.1611ZM32.1122 38.4442C30.9399 31.628 27.2444 22.3676 20.3247 20.762C12.6454 18.9999 8.69561 9.28922 7.30232 1.5625H8.89568C10.2069 8.38078 13.6177 17.3145 20.2897 19.1418C20.2954 19.1434 20.3012 19.1448 20.3068 19.1463C20.8865 19.3054 22.3078 19.5396 24.1212 20.6709C28.0733 23.1345 30.4673 27.8616 31.7797 31.3933C32.9127 34.442 33.4784 37.2037 33.6969 38.44C33.1752 38.4411 32.6263 38.4423 32.1122 38.4442Z" fill="#CC2D4A"/>
</svg>
