<svg width="109" height="48" viewBox="0 0 109 48" fill="none" xmlns="http://www.w3.org/2000/svg">
<path fill-rule="evenodd" clip-rule="evenodd" d="M67.7927 22.5975H35.8902V31.9389H0V40.2423H35.8902V47.8536H67.7927V40.2423H103.683V31.9389H67.7927V22.5975Z" fill="#27AE60"/>
<path d="M21.5322 36V32.2408L21.0484 31.3103V24.3875C21.0484 23.2709 20.701 22.4149 20.0062 21.8194C19.3363 21.199 18.2569 20.8889 16.7681 20.8889C15.8004 20.8889 14.8203 21.0502 13.8278 21.3727C12.8353 21.6705 11.9916 22.0923 11.2969 22.6382L8.9148 17.8369C10.0562 17.0925 11.4209 16.5218 13.0089 16.1248C14.6218 15.703 16.2222 15.492 17.8103 15.492C21.0856 15.492 23.6165 16.2488 25.403 17.7624C27.2144 19.2512 28.1201 21.596 28.1201 24.7969V36H21.5322ZM15.5771 36.335C13.9643 36.335 12.5995 36.062 11.483 35.5161C10.3664 34.9703 9.51032 34.2259 8.9148 33.283C8.3441 32.3401 8.05875 31.2855 8.05875 30.1193C8.05875 28.8787 8.36892 27.8117 8.98924 26.9184C9.63438 26.0004 10.6145 25.3056 11.9296 24.8341C13.2447 24.3379 14.9444 24.0898 17.0287 24.0898H21.7928V27.7745H17.9964C16.855 27.7745 16.0485 27.9606 15.5771 28.3328C15.1305 28.705 14.9071 29.2012 14.9071 29.8216C14.9071 30.4419 15.1429 30.9381 15.6143 31.3103C16.0858 31.6825 16.7309 31.8686 17.5497 31.8686C18.3189 31.8686 19.0137 31.6825 19.634 31.3103C20.2792 30.9133 20.7506 30.3178 21.0484 29.5238L22.0161 32.1292C21.6439 33.5187 20.9119 34.5733 19.8201 35.2928C18.7532 35.9876 17.3388 36.335 15.5771 36.335ZM32.5838 36V15.827H39.6555V36H32.5838ZM36.1197 13.5939C34.8294 13.5939 33.7872 13.2341 32.9932 12.5145C32.1992 11.7949 31.8022 10.9016 31.8022 9.83468C31.8022 8.76772 32.1992 7.87445 32.9932 7.15488C33.7872 6.4353 34.8294 6.07551 36.1197 6.07551C37.4099 6.07551 38.4521 6.42289 39.2461 7.11766C40.0401 7.78761 40.4371 8.65606 40.4371 9.72302C40.4371 10.8396 40.0401 11.7701 39.2461 12.5145C38.4769 13.2341 37.4347 13.5939 36.1197 13.5939ZM53.035 36.335C51.1989 36.335 49.524 35.9132 48.0104 35.0695C46.5216 34.2011 45.3306 32.9976 44.4373 31.4592C43.5441 29.896 43.0974 28.035 43.0974 25.8763C43.0974 23.7424 43.5441 21.9062 44.4373 20.3678C45.3306 18.8046 46.5216 17.6012 48.0104 16.7575C49.524 15.9139 51.1989 15.492 53.035 15.492C54.772 15.492 56.2359 15.8642 57.4269 16.6086C58.6428 17.353 59.5609 18.4944 60.1812 20.0328C60.8015 21.5712 61.1117 23.5191 61.1117 25.8763C61.1117 28.2832 60.8139 30.2558 60.2184 31.7942C59.6229 33.3326 58.7296 34.474 57.5386 35.2184C56.3476 35.9628 54.8464 36.335 53.035 36.335ZM54.5238 30.7148C55.3178 30.7148 56.025 30.5287 56.6453 30.1565C57.2905 29.7843 57.7991 29.2385 58.1713 28.5189C58.5435 27.7745 58.7296 26.8936 58.7296 25.8763C58.7296 24.859 58.5435 24.0029 58.1713 23.3081C57.7991 22.5886 57.2905 22.0427 56.6453 21.6705C56.025 21.2983 55.3178 21.1122 54.5238 21.1122C53.705 21.1122 52.973 21.2983 52.3279 21.6705C51.7076 22.0427 51.2113 22.5886 50.8391 23.3081C50.4669 24.0029 50.2808 24.859 50.2808 25.8763C50.2808 26.8936 50.4669 27.7745 50.8391 28.5189C51.2113 29.2385 51.7076 29.7843 52.3279 30.1565C52.973 30.5287 53.705 30.7148 54.5238 30.7148ZM58.9529 36V32.5386L58.9902 25.8763L58.618 19.214V8.38312H65.6897V36H58.9529ZM80.8098 36.335C78.4278 36.335 76.3435 35.8883 74.5569 34.9951C72.7952 34.077 71.4181 32.8363 70.4256 31.2731C69.4579 29.6851 68.974 27.8861 68.974 25.8763C68.974 23.8664 69.4455 22.0799 70.3884 20.5167C71.3561 18.9286 72.6836 17.7004 74.3708 16.8319C76.0581 15.9387 77.9563 15.492 80.0654 15.492C82.0505 15.492 83.8618 15.9015 85.4995 16.7203C87.1371 17.5143 88.4398 18.6929 89.4075 20.2561C90.3752 21.8194 90.8591 23.7176 90.8591 25.9507C90.8591 26.1989 90.8467 26.4842 90.8219 26.8068C90.7971 27.1293 90.7722 27.4271 90.7474 27.7H74.7803V23.9781H86.9883L84.3085 25.0202C84.3333 24.1022 84.1596 23.3081 83.7874 22.6382C83.44 21.9682 82.9437 21.4472 82.2986 21.075C81.6783 20.7028 80.9463 20.5167 80.1026 20.5167C79.259 20.5167 78.5146 20.7028 77.8695 21.075C77.2492 21.4472 76.7653 21.9806 76.4179 22.6754C76.0705 23.3454 75.8968 24.1394 75.8968 25.0575V26.1368C75.8968 27.1293 76.0953 27.9854 76.4924 28.705C76.9142 29.4246 77.5097 29.9828 78.2789 30.3799C79.0481 30.752 79.9662 30.9381 81.0331 30.9381C82.0257 30.9381 82.8693 30.8017 83.5641 30.5287C84.2836 30.231 84.9908 29.7843 85.6856 29.1888L89.4075 33.0597C88.4398 34.1266 87.2488 34.9454 85.8345 35.5161C84.4201 36.062 82.7452 36.335 80.8098 36.335ZM94.1196 36V15.827H100.856V21.7077L99.8514 20.0328C100.447 18.5192 101.415 17.3902 102.754 16.6459C104.094 15.8766 105.72 15.492 107.63 15.492V21.8566C107.308 21.807 107.022 21.7821 106.774 21.7821C106.551 21.7573 106.303 21.7449 106.03 21.7449C104.591 21.7449 103.424 22.1419 102.531 22.936C101.638 23.7052 101.191 24.9706 101.191 26.7323V36H94.1196Z" fill="white"/>
<circle cx="52.5057" cy="25.2561" r="6.64634" fill="#27AE60"/>
<path fill-rule="evenodd" clip-rule="evenodd" d="M53.8353 17.3044V15.9512H52.5061V17.3044C50.451 17.4627 48.5203 18.3505 47.0624 19.8074C45.6045 21.2644 44.7154 23.1945 44.5557 25.2494H43.2012V26.5787H44.5557C44.7148 28.635 45.6034 30.5667 47.0611 32.0257C48.5189 33.4847 50.4499 34.3748 52.5061 34.5357V35.8902H53.8353V34.5357C55.8915 34.3748 57.8225 33.4847 59.2802 32.0257C60.738 30.5667 61.6265 28.635 61.7857 26.5787H63.1402V25.2494H61.7857C61.6259 23.1945 60.7369 21.2644 59.2789 19.8074C57.821 18.3505 55.8903 17.4627 53.8353 17.3044ZM53.8353 19.939V25.2494H59.1524V26.5787H53.8353V31.9024H52.5061V26.5787H47.189V25.2494H52.5061V19.939H53.8353Z" fill="#1B2432"/>
</svg>
