<svg width="41" height="40" viewBox="0 0 41 40" fill="none" xmlns="http://www.w3.org/2000/svg">
<path d="M8.78125 14.5312C8.35 14.5312 8 14.8812 8 15.3124C8 15.7437 8.35 16.0937 8.78125 16.0937C9.21251 16.0937 9.56251 15.7437 9.56251 15.3124C9.56251 14.8812 9.21251 14.5312 8.78125 14.5312Z" fill="#2196F3"/>
<path d="M8.78125 14.5312C8.35 14.5312 8 14.8812 8 15.3124C8 15.7437 8.35 16.0937 8.78125 16.0937C9.21251 16.0937 9.56251 15.7437 9.56251 15.3124C9.56251 14.8812 9.21251 14.5312 8.78125 14.5312Z" fill="#CC2D4A"/>
<g filter="url(#filter0_d_37_1220)">
<path d="M27.5313 16.0937H23.625V12.1874C23.625 11.756 23.2752 11.4061 22.8438 11.4061H18.1563C17.7249 11.4061 17.375 11.756 17.375 12.1874V16.0937H13.4688C13.0373 16.0937 12.6875 16.4435 12.6875 16.8749V21.5624C12.6875 21.9938 13.0373 22.3437 13.4688 22.3437H17.375V26.25C17.375 26.6814 17.7249 27.0312 18.1563 27.0312H22.8438C23.2752 27.0312 23.625 26.6814 23.625 26.25V22.3437H27.5313C27.9627 22.3437 28.3126 21.9938 28.3126 21.5624V16.8749C28.3126 16.4435 27.9627 16.0937 27.5313 16.0937ZM26.7501 20.7812H22.8438C22.4124 20.7812 22.0625 21.131 22.0625 21.5624V25.4687H18.9375V21.5624C18.9375 21.131 18.5877 20.7812 18.1563 20.7812H14.25V17.6562H18.1563C18.5877 17.6562 18.9375 17.3063 18.9375 16.8749V12.9686H22.0625V16.8749C22.0625 17.3063 22.4124 17.6562 22.8438 17.6562H26.7501V20.7812Z" fill="#2196F3"/>
<path d="M27.5313 16.0937H23.625V12.1874C23.625 11.756 23.2752 11.4061 22.8438 11.4061H18.1563C17.7249 11.4061 17.375 11.756 17.375 12.1874V16.0937H13.4688C13.0373 16.0937 12.6875 16.4435 12.6875 16.8749V21.5624C12.6875 21.9938 13.0373 22.3437 13.4688 22.3437H17.375V26.25C17.375 26.6814 17.7249 27.0312 18.1563 27.0312H22.8438C23.2752 27.0312 23.625 26.6814 23.625 26.25V22.3437H27.5313C27.9627 22.3437 28.3126 21.9938 28.3126 21.5624V16.8749C28.3126 16.4435 27.9627 16.0937 27.5313 16.0937ZM26.7501 20.7812H22.8438C22.4124 20.7812 22.0625 21.131 22.0625 21.5624V25.4687H18.9375V21.5624C18.9375 21.131 18.5877 20.7812 18.1563 20.7812H14.25V17.6562H18.1563C18.5877 17.6562 18.9375 17.3063 18.9375 16.8749V12.9686H22.0625V16.8749C22.0625 17.3063 22.4124 17.6562 22.8438 17.6562H26.7501V20.7812Z" fill="#CC2D4A"/>
</g>
<path d="M32.5607 2.40165C31.2958 3.2229 29.8268 3.65689 28.3126 3.65689C25.9968 3.65689 23.8139 2.6379 22.3237 0.861097C22.3236 0.861097 22.3236 0.861097 22.3236 0.861097C21.8646 0.313907 21.1999 0 20.5001 0C19.8002 0 19.1355 0.313907 18.6765 0.861019C17.1862 2.63782 15.0032 3.65681 12.6875 3.65681C11.1733 3.65681 9.70432 3.22275 8.43947 2.40157C6.8947 1.39899 4.875 2.57938 4.875 4.399V20.3343C4.875 23.8789 6.01204 27.3421 8.07642 30.0859C13.1835 36.8765 19.9083 39.8148 20.192 39.9366C20.2904 39.9788 20.3953 40 20.5001 40C20.6048 40 20.7098 39.9788 20.8081 39.9366C21.0919 39.8148 27.8167 36.8766 32.9236 30.0868C34.9882 27.3421 36.1251 23.8786 36.1251 20.3343V4.39908C36.1251 2.57931 34.105 1.39899 32.5607 2.40165ZM31.675 29.1475C27.4279 34.794 21.8574 37.7049 20.4996 38.358C19.1412 37.7065 13.5815 34.8064 9.3251 29.1467C7.46298 26.6719 6.43751 23.5424 6.43751 20.3344V4.39908C6.43751 3.80431 7.09384 3.39111 7.5886 3.7122C9.10744 4.69822 10.8706 5.2194 12.6875 5.2194C15.4664 5.2194 18.0858 3.99689 19.8736 1.86524C20.0373 1.67001 20.2597 1.56251 20.5001 1.56251C20.7404 1.56251 20.9628 1.67001 21.1265 1.86524C22.9144 3.99681 25.5337 5.2194 28.3126 5.2194C30.1295 5.2194 31.8926 4.69822 33.4115 3.7122C33.8982 3.39603 34.5626 3.79533 34.5626 4.39908V20.3343C34.5626 23.542 33.5371 26.6719 31.675 29.1475Z" fill="#2196F3"/>
<path d="M32.5607 2.40165C31.2958 3.2229 29.8268 3.65689 28.3126 3.65689C25.9968 3.65689 23.8139 2.6379 22.3237 0.861097C22.3236 0.861097 22.3236 0.861097 22.3236 0.861097C21.8646 0.313907 21.1999 0 20.5001 0C19.8002 0 19.1355 0.313907 18.6765 0.861019C17.1862 2.63782 15.0032 3.65681 12.6875 3.65681C11.1733 3.65681 9.70432 3.22275 8.43947 2.40157C6.8947 1.39899 4.875 2.57938 4.875 4.399V20.3343C4.875 23.8789 6.01204 27.3421 8.07642 30.0859C13.1835 36.8765 19.9083 39.8148 20.192 39.9366C20.2904 39.9788 20.3953 40 20.5001 40C20.6048 40 20.7098 39.9788 20.8081 39.9366C21.0919 39.8148 27.8167 36.8766 32.9236 30.0868C34.9882 27.3421 36.1251 23.8786 36.1251 20.3343V4.39908C36.1251 2.57931 34.105 1.39899 32.5607 2.40165ZM31.675 29.1475C27.4279 34.794 21.8574 37.7049 20.4996 38.358C19.1412 37.7065 13.5815 34.8064 9.3251 29.1467C7.46298 26.6719 6.43751 23.5424 6.43751 20.3344V4.39908C6.43751 3.80431 7.09384 3.39111 7.5886 3.7122C9.10744 4.69822 10.8706 5.2194 12.6875 5.2194C15.4664 5.2194 18.0858 3.99689 19.8736 1.86524C20.0373 1.67001 20.2597 1.56251 20.5001 1.56251C20.7404 1.56251 20.9628 1.67001 21.1265 1.86524C22.9144 3.99681 25.5337 5.2194 28.3126 5.2194C30.1295 5.2194 31.8926 4.69822 33.4115 3.7122C33.8982 3.39603 34.5626 3.79533 34.5626 4.39908V20.3343C34.5626 23.542 33.5371 26.6719 31.675 29.1475Z" fill="#CC2D4A"/>
<path d="M32.6695 6.25168C32.4622 6.10527 32.1968 6.06871 31.9576 6.15348C30.7822 6.57051 29.5558 6.78192 28.3126 6.78192C25.6272 6.78192 23.0374 5.79059 21.0202 3.9905C20.7239 3.72605 20.2762 3.72605 19.9799 3.9905C17.9628 5.79059 15.3729 6.78192 12.6875 6.78192C11.4443 6.78192 10.2179 6.57051 9.0425 6.15348C8.80313 6.06871 8.53789 6.10527 8.33055 6.25168C8.12336 6.39809 8.00008 6.63606 8.00008 6.88981V12.1875C8.00008 12.6189 8.34992 12.9687 8.78133 12.9687C9.21274 12.9687 9.56258 12.6189 9.56258 12.1875V7.94583C10.5827 8.21067 11.6298 8.3445 12.6876 8.3445C15.531 8.3445 18.2794 7.37317 20.5001 5.59598C22.7208 7.37317 25.4693 8.3445 28.3127 8.3445C29.3705 8.3445 30.4175 8.21067 31.4377 7.94583V20.3344C31.4377 22.8696 30.6351 25.3316 29.1772 27.2672C26.223 31.1966 22.6149 33.6297 20.5075 34.8276C18.3834 33.614 14.7521 31.1625 11.8227 27.2685C10.3652 25.3317 9.56251 22.8691 9.56251 20.3343V18.4374C9.56251 18.006 9.21266 17.6562 8.78125 17.6562C8.34985 17.6562 8 18.006 8 18.4374V20.3343C8 23.2059 8.91422 26.0021 10.5742 28.2079C13.8594 32.5752 17.9711 35.2196 20.1297 36.4072C20.2469 36.4716 20.3765 36.5039 20.5062 36.5039C20.6351 36.5039 20.7642 36.472 20.8809 36.4082C23.0228 35.2376 27.111 32.6154 30.4256 28.2067C32.0857 26.0023 33 23.2066 33 20.3343V6.88973C33 6.63598 32.8767 6.39809 32.6695 6.25168Z" fill="#2196F3"/>
<path d="M32.6695 6.25168C32.4622 6.10527 32.1968 6.06871 31.9576 6.15348C30.7822 6.57051 29.5558 6.78192 28.3126 6.78192C25.6272 6.78192 23.0374 5.79059 21.0202 3.9905C20.7239 3.72605 20.2762 3.72605 19.9799 3.9905C17.9628 5.79059 15.3729 6.78192 12.6875 6.78192C11.4443 6.78192 10.2179 6.57051 9.0425 6.15348C8.80313 6.06871 8.53789 6.10527 8.33055 6.25168C8.12336 6.39809 8.00008 6.63606 8.00008 6.88981V12.1875C8.00008 12.6189 8.34992 12.9687 8.78133 12.9687C9.21274 12.9687 9.56258 12.6189 9.56258 12.1875V7.94583C10.5827 8.21067 11.6298 8.3445 12.6876 8.3445C15.531 8.3445 18.2794 7.37317 20.5001 5.59598C22.7208 7.37317 25.4693 8.3445 28.3127 8.3445C29.3705 8.3445 30.4175 8.21067 31.4377 7.94583V20.3344C31.4377 22.8696 30.6351 25.3316 29.1772 27.2672C26.223 31.1966 22.6149 33.6297 20.5075 34.8276C18.3834 33.614 14.7521 31.1625 11.8227 27.2685C10.3652 25.3317 9.56251 22.8691 9.56251 20.3343V18.4374C9.56251 18.006 9.21266 17.6562 8.78125 17.6562C8.34985 17.6562 8 18.006 8 18.4374V20.3343C8 23.2059 8.91422 26.0021 10.5742 28.2079C13.8594 32.5752 17.9711 35.2196 20.1297 36.4072C20.2469 36.4716 20.3765 36.5039 20.5062 36.5039C20.6351 36.5039 20.7642 36.472 20.8809 36.4082C23.0228 35.2376 27.111 32.6154 30.4256 28.2067C32.0857 26.0023 33 23.2066 33 20.3343V6.88973C33 6.63598 32.8767 6.39809 32.6695 6.25168Z" fill="#CC2D4A"/>
<defs>
<filter id="filter0_d_37_1220" x="8.6875" y="11.4061" width="23.625" height="23.6251" filterUnits="userSpaceOnUse" color-interpolation-filters="sRGB">
<feFlood flood-opacity="0" result="BackgroundImageFix"/>
<feColorMatrix in="SourceAlpha" type="matrix" values="0 0 0 0 0 0 0 0 0 0 0 0 0 0 0 0 0 0 127 0" result="hardAlpha"/>
<feOffset dy="4"/>
<feGaussianBlur stdDeviation="2"/>
<feComposite in2="hardAlpha" operator="out"/>
<feColorMatrix type="matrix" values="0 0 0 0 0 0 0 0 0 0 0 0 0 0 0 0 0 0 0.25 0"/>
<feBlend mode="normal" in2="BackgroundImageFix" result="effect1_dropShadow_37_1220"/>
<feBlend mode="normal" in="SourceGraphic" in2="effect1_dropShadow_37_1220" result="shape"/>
</filter>
</defs>
</svg>
