<svg width="24" height="25" viewBox="0 0 24 25" fill="none" xmlns="http://www.w3.org/2000/svg">
<path d="M19 22.8537H5C3.34315 22.8537 2 21.5106 2 19.8537V3.85367C2 3.30139 2.44772 2.85367 3 2.85367H17C17.5523 2.85367 18 3.30139 18 3.85367V15.8537H22V19.8537C22 21.5106 20.6569 22.8537 19 22.8537ZM18 17.8537V19.8537C18 20.406 18.4477 20.8537 19 20.8537C19.5523 20.8537 20 20.406 20 19.8537V17.8537H18ZM16 20.8537V4.85367H4V19.8537C4 20.406 4.44772 20.8537 5 20.8537H16ZM6 7.85367H14V9.85367H6V7.85367ZM6 11.8537H14V13.8537H6V11.8537ZM6 15.8537H11V17.8537H6V15.8537Z" fill="#1B2432"/>
</svg>
