<svg width="24" height="25" viewBox="0 0 24 25" fill="none" xmlns="http://www.w3.org/2000/svg">
<path d="M17 16.0991V22.9706C17 23.2467 16.7761 23.4707 16.5 23.4707C16.4094 23.4707 16.3205 23.446 16.2428 23.3994L12 20.8537L7.75725 23.3994C7.52046 23.5414 7.21333 23.4646 7.07125 23.2279C7.02463 23.1501 7 23.0612 7 22.9706V16.0991C5.17107 14.633 4 12.3801 4 9.85367C4 5.43539 7.58172 1.85367 12 1.85367C16.4183 1.85367 20 5.43539 20 9.85367C20 12.3801 18.8289 14.633 17 16.0991ZM9 17.2722V20.3213L12 18.5213L15 20.3213V17.2722C14.0736 17.6472 13.0609 17.8537 12 17.8537C10.9391 17.8537 9.92643 17.6472 9 17.2722ZM12 15.8537C15.3137 15.8537 18 13.1674 18 9.85367C18 6.53996 15.3137 3.85367 12 3.85367C8.68629 3.85367 6 6.53996 6 9.85367C6 13.1674 8.68629 15.8537 12 15.8537Z" fill="#1B2432"/>
</svg>
