<svg width="189" height="48" viewBox="0 0 189 48" fill="none" xmlns="http://www.w3.org/2000/svg">
<path fill-rule="evenodd" clip-rule="evenodd" d="M107.793 22.5977H75.8902V31.9392H40V40.2426H75.8902V47.8538H107.793V40.2426H143.683V31.9392H107.793V22.5977Z" fill="#27AE60"/>
<path d="M61.5322 36V32.2408L61.0484 31.3103V24.3875C61.0484 23.2709 60.701 22.4149 60.0062 21.8194C59.3363 21.199 58.2569 20.8889 56.7681 20.8889C55.8004 20.8889 54.8203 21.0502 53.8278 21.3727C52.8353 21.6705 51.9916 22.0923 51.2969 22.6382L48.9148 17.8369C50.0562 17.0925 51.4209 16.5218 53.0089 16.1248C54.6218 15.703 56.2222 15.492 57.8103 15.492C61.0856 15.492 63.6165 16.2488 65.403 17.7624C67.2144 19.2512 68.1201 21.596 68.1201 24.7969V36H61.5322ZM55.5771 36.335C53.9643 36.335 52.5995 36.062 51.483 35.5161C50.3664 34.9703 49.5103 34.2259 48.9148 33.283C48.3441 32.3401 48.0588 31.2855 48.0588 30.1193C48.0588 28.8787 48.3689 27.8117 48.9892 26.9184C49.6344 26.0004 50.6145 25.3056 51.9296 24.8341C53.2447 24.3379 54.9444 24.0898 57.0287 24.0898H61.7928V27.7745H57.9964C56.855 27.7745 56.0485 27.9606 55.5771 28.3328C55.1305 28.705 54.9071 29.2012 54.9071 29.8216C54.9071 30.4419 55.1429 30.9381 55.6143 31.3103C56.0858 31.6825 56.7309 31.8686 57.5497 31.8686C58.3189 31.8686 59.0137 31.6825 59.634 31.3103C60.2792 30.9133 60.7506 30.3178 61.0484 29.5238L62.0161 32.1292C61.6439 33.5187 60.9119 34.5733 59.8201 35.2928C58.7532 35.9876 57.3388 36.335 55.5771 36.335ZM72.5838 36V15.827H79.6555V36H72.5838ZM76.1197 13.5939C74.8294 13.5939 73.7872 13.2341 72.9932 12.5145C72.1992 11.7949 71.8022 10.9016 71.8022 9.83468C71.8022 8.76772 72.1992 7.87445 72.9932 7.15488C73.7872 6.4353 74.8294 6.07551 76.1197 6.07551C77.4099 6.07551 78.4521 6.42289 79.2461 7.11766C80.0401 7.78761 80.4371 8.65606 80.4371 9.72302C80.4371 10.8396 80.0401 11.7701 79.2461 12.5145C78.4769 13.2341 77.4347 13.5939 76.1197 13.5939ZM93.035 36.335C91.1989 36.335 89.524 35.9132 88.0104 35.0695C86.5216 34.2011 85.3306 32.9976 84.4373 31.4592C83.5441 29.896 83.0974 28.035 83.0974 25.8763C83.0974 23.7424 83.5441 21.9062 84.4373 20.3678C85.3306 18.8046 86.5216 17.6012 88.0104 16.7575C89.524 15.9139 91.1989 15.492 93.035 15.492C94.772 15.492 96.2359 15.8642 97.4269 16.6086C98.6428 17.353 99.5609 18.4944 100.181 20.0328C100.802 21.5712 101.112 23.5191 101.112 25.8763C101.112 28.2832 100.814 30.2558 100.218 31.7942C99.6229 33.3326 98.7296 34.474 97.5386 35.2184C96.3476 35.9628 94.8464 36.335 93.035 36.335ZM94.5238 30.7148C95.3178 30.7148 96.025 30.5287 96.6453 30.1565C97.2905 29.7843 97.7991 29.2385 98.1713 28.5189C98.5435 27.7745 98.7296 26.8936 98.7296 25.8763C98.7296 24.859 98.5435 24.0029 98.1713 23.3081C97.7991 22.5886 97.2905 22.0427 96.6453 21.6705C96.025 21.2983 95.3178 21.1122 94.5238 21.1122C93.705 21.1122 92.973 21.2983 92.3279 21.6705C91.7076 22.0427 91.2113 22.5886 90.8391 23.3081C90.4669 24.0029 90.2808 24.859 90.2808 25.8763C90.2808 26.8936 90.4669 27.7745 90.8391 28.5189C91.2113 29.2385 91.7076 29.7843 92.3279 30.1565C92.973 30.5287 93.705 30.7148 94.5238 30.7148ZM98.9529 36V32.5386L98.9902 25.8763L98.618 19.214V8.38312H105.69V36H98.9529ZM120.81 36.335C118.428 36.335 116.343 35.8883 114.557 34.9951C112.795 34.077 111.418 32.8363 110.426 31.2731C109.458 29.6851 108.974 27.8861 108.974 25.8763C108.974 23.8664 109.445 22.0799 110.388 20.5167C111.356 18.9286 112.684 17.7004 114.371 16.8319C116.058 15.9387 117.956 15.492 120.065 15.492C122.05 15.492 123.862 15.9015 125.499 16.7203C127.137 17.5143 128.44 18.6929 129.408 20.2561C130.375 21.8194 130.859 23.7176 130.859 25.9507C130.859 26.1989 130.847 26.4842 130.822 26.8068C130.797 27.1293 130.772 27.4271 130.747 27.7H114.78V23.9781H126.988L124.308 25.0202C124.333 24.1022 124.16 23.3081 123.787 22.6382C123.44 21.9682 122.944 21.4472 122.299 21.075C121.678 20.7028 120.946 20.5167 120.103 20.5167C119.259 20.5167 118.515 20.7028 117.869 21.075C117.249 21.4472 116.765 21.9806 116.418 22.6754C116.071 23.3454 115.897 24.1394 115.897 25.0575V26.1368C115.897 27.1293 116.095 27.9854 116.492 28.705C116.914 29.4246 117.51 29.9828 118.279 30.3799C119.048 30.752 119.966 30.9381 121.033 30.9381C122.026 30.9381 122.869 30.8017 123.564 30.5287C124.284 30.231 124.991 29.7843 125.686 29.1888L129.408 33.0597C128.44 34.1266 127.249 34.9454 125.834 35.5161C124.42 36.062 122.745 36.335 120.81 36.335ZM134.12 36V15.827H140.856V21.7077L139.851 20.0328C140.447 18.5192 141.415 17.3902 142.754 16.6459C144.094 15.8766 145.72 15.492 147.63 15.492V21.8566C147.308 21.807 147.022 21.7821 146.774 21.7821C146.551 21.7573 146.303 21.7449 146.03 21.7449C144.591 21.7449 143.424 22.1419 142.531 22.936C141.638 23.7052 141.191 24.9706 141.191 26.7323V36H134.12Z" fill="#1B2432"/>
<circle cx="92.5057" cy="25.2562" r="6.64634" fill="#27AE60"/>
<path fill-rule="evenodd" clip-rule="evenodd" d="M93.8353 17.3044V15.9512H92.5061V17.3044C90.451 17.4627 88.5203 18.3505 87.0624 19.8074C85.6045 21.2644 84.7154 23.1945 84.5557 25.2494H83.2012V26.5787H84.5557C84.7148 28.635 85.6034 30.5667 87.0611 32.0257C88.5189 33.4847 90.4499 34.3748 92.5061 34.5357V35.8902H93.8353V34.5357C95.8915 34.3748 97.8225 33.4847 99.2802 32.0257C100.738 30.5667 101.627 28.635 101.786 26.5787H103.14V25.2494H101.786C101.626 23.1945 100.737 21.2644 99.279 19.8074C97.821 18.3505 95.8903 17.4627 93.8353 17.3044ZM93.8353 19.939V25.2494H99.1524V26.5787H93.8353V31.9024H92.5061V26.5787H87.189V25.2494H92.5061V19.939H93.8353Z" fill="#2196F3"/>
</svg>